# xmcd
#
# Track frame offsets: 
#        150
#        14661
#        34415
#        49878
#        66637
#        81025
#        97433
#        109210
#        123497
#        141519
#        155397
#        172004
#        182242
#        202423
#        220331
#
# Disc length: 3129 seconds
#
# Revision: 0
# Processed by: cddbd v1.5.2PL0 Copyright (c) Steve Scherf et al.
# Submitted via: ExactAudioCopyFreeDBPlugin 1.0
#
DISCID=fa0c370f
DTITLE=Kukerpillid and David - Connected Country 2
DYEAR=2015
DGENRE=Country
TTITLE0=Freight Train
TTITLE1=Grandfathers's Clock
TTITLE2=Jealous Heart
TTITLE3=Old Spinning Wheel
TTITLE4=Oh, They're Tough, Mighty Tough In The West
TTITLE5=Marie Marie
TTITLE6=Do What You Do, Do Well
TTITLE7=Lamp Lightning Time In The Valley
TTITLE8=Last Thing On My Mind
TTITLE9=Proud Mary
TTITLE10=The Lonesome Trail Ain't Lonesome Anymore
TTITLE11=I'm Sad And Blue
TTITLE12=Red River Valley
TTITLE13=Memories Are Made Of This
TTITLE14=Que Sera Sera
EXTD=
EXTT0=
EXTT1=
EXTT2=
EXTT3=
EXTT4=
EXTT5=
EXTT6=
EXTT7=
EXTT8=
EXTT9=
EXTT10=
EXTT11=
EXTT12=
EXTT13=
EXTT14=
PLAYORDER=
